0
SECTION
2
HEADER
9
$INSUNITS
70
4
9
$ACADVER
1
AC1014
9
$HANDSEED
5
FFFF
0
ENDSEC
0
SECTION
2
TABLES
0
TABLE
2
VPORT
5
8
100
AcDbSymbolTable
0
ENDTAB
0
TABLE
2
LTYPE
5
5
100
AcDbSymbolTable
0
LTYPE
5
14
100
AcDbSymbolTableRecord
100
AcDbLinetypeTableRecord
2
BYBLOCK
70
0
0
LTYPE
5
15
100
AcDbSymbolTableRecord
100
AcDbLinetypeTableRecord
2
BYLAYER
70
0
0
ENDTAB
0
TABLE
2
LAYER
5
2
100
AcDbSymbolTable
70
2
0
LAYER
5
50
100
AcDbSymbolTableRecord
100
AcDbLayerTableRecord
2
0
70
0
6
CONTINUOUS
0
ENDTAB
0
TABLE
2
STYLE
5
3
100
AcDbSymbolTable
70
1
0
STYLE
5
11
100
AcDbSymbolTableRecord
100
AcDbTextStyleTableRecord
2
STANDARD
70
0
0
ENDTAB
0
TABLE
2
VIEW
5
6
100
AcDbSymbolTable
70
0
0
ENDTAB
0
TABLE
2
UCS
5
7
100
AcDbSymbolTable
70
0
0
ENDTAB
0
TABLE
2
APPID
5
9
100
AcDbSymbolTable
70
2
0
APPID
5
12
100
AcDbSymbolTableRecord
100
AcDbRegAppTableRecord
2
ACAD
70
0
0
ENDTAB
0
TABLE
2
DIMSTYLE
5
A
100
AcDbSymbolTable
70
1
0
ENDTAB
0
TABLE
2
BLOCK_RECORD
5
1
100
AcDbSymbolTable
70
1
0
BLOCK_RECORD
5
1F
100
AcDbSymbolTableRecord
100
AcDbBlockTableRecord
2
*MODEL_SPACE
0
BLOCK_RECORD
5
1B
100
AcDbSymbolTableRecord
100
AcDbBlockTableRecord
2
*PAPER_SPACE
0
ENDTAB
0
ENDSEC
0
SECTION
2
BLOCKS
0
BLOCK
5
20
100
AcDbEntity
100
AcDbBlockBegin
2
*MODEL_SPACE
0
ENDBLK
5
21
100
AcDbEntity
100
AcDbBlockEnd
0
BLOCK
5
1C
100
AcDbEntity
100
AcDbBlockBegin
2
*PAPER_SPACE
0
ENDBLK
5
1D
100
AcDbEntity
100
AcDbBlockEnd
0
ENDSEC
0
SECTION
2
ENTITIES
0
LWPOLYLINE
5
100
100
AcDbEntity
8
0
100
AcDbPolyline
90
8
70
1
43
0.0
10
31.100000000000001
20
-41.125
10
31.100000000000001
20
-54.125000000000007
42
0.41421356237309509
10
31.600000000000001
20
-54.625
10
44.600000000000001
20
-54.625
42
0.41421356237309509
10
45.099999999999994
20
-54.125000000000007
10
45.099999999999994
20
-41.125
42
0.41421356237309509
10
44.600000000000001
20
-40.625
10
31.600000000000001
20
-40.625
42
0.41421356237309509
0
LWPOLYLINE
5
101
100
AcDbEntity
8
0
100
AcDbPolyline
90
8
70
1
43
0.0
10
83.200000000000003
20
-41.125
10
83.200000000000003
20
-54.125000000000007
42
-0.41421356237309509
10
82.700000000000017
20
-54.625
10
69.700000000000003
20
-54.625
42
-0.41421356237309509
10
69.200000000000003
20
-54.125000000000007
10
69.200000000000003
20
-41.125
42
-0.41421356237309509
10
69.700000000000003
20
-40.625
10
82.700000000000017
20
-40.624999999999993
42
-0.41421356237309509
0
LWPOLYLINE
5
102
100
AcDbEntity
8
0
100
AcDbPolyline
90
8
70
1
43
0.0
10
64.150000000000006
20
-41.125
10
64.150000000000006
20
-54.125000000000007
42
-0.41421356237309509
10
63.650000000000006
20
-54.625
10
50.650000000000006
20
-54.625
42
-0.41421356237309509
10
50.150000000000006
20
-54.125000000000007
10
50.150000000000006
20
-41.125
42
-0.41421356237309509
10
50.650000000000006
20
-40.625
10
63.650000000000006
20
-40.625
42
-0.41421356237309509
0
LWPOLYLINE
5
103
100
AcDbEntity
8
0
100
AcDbPolyline
90
8
70
1
43
0.0
10
20.787500000000001
20
-54.625
42
0.41421356237309509
10
21.287500000000001
20
-54.125000000000007
10
21.287500000000001
20
-41.125
42
0.41421356237309509
10
20.787500000000001
20
-40.625
10
7.7875000000000005
20
-40.625
42
0.41421356237309509
10
7.2874999999999996
20
-41.125
10
7.2874999999999996
20
-54.125000000000007
42
0.41421356237309509
10
7.7875000000000005
20
-54.625
0
LWPOLYLINE
5
104
100
AcDbEntity
8
0
100
AcDbPolyline
90
8
70
1
43
0.0
10
163.66250000000002
20
-54.625
42
0.41421356237309509
10
164.16250000000002
20
-54.125000000000007
10
164.16250000000002
20
-41.125
42
0.41421356237309509
10
163.66250000000002
20
-40.625
10
150.66249999999999
20
-40.625
42
0.41421356237309509
10
150.16249999999999
20
-41.125
10
150.16249999999999
20
-54.125000000000007
42
0.41421356237309509
10
150.66249999999999
20
-54.625
0
LINE
5
105
100
AcDbEntity
8
0
100
AcDbLine
10
167.33125000000001
20
-40.625
30
0
11
180.33125000000001
21
-40.625
31
0
0
ARC
5
106
100
AcDbEntity
8
0
100
AcDbCircle
10
167.33125000000001
20
-41.125
30
0
40
0.49999999999999822
210
0
220
-0
230
1
100
AcDbArc
50
90
51
180
0
LWPOLYLINE
5
107
100
AcDbEntity
8
0
100
AcDbPolyline
90
8
70
1
43
0.0
10
193.02500000000003
20
-54.125000000000007
42
0.41421356237309509
10
193.52500000000003
20
-54.625
10
206.52500000000003
20
-54.625
42
0.41421356237309509
10
207.02500000000003
20
-54.125000000000007
10
207.02500000000003
20
-41.125
42
0.41421356237309509
10
206.52500000000003
20
-40.625
10
193.52500000000003
20
-40.625
42
0.41421356237309509
10
193.02500000000003
20
-41.125
0
LINE
5
108
100
AcDbEntity
8
0
100
AcDbLine
10
187.97499999999999
20
-41.125
30
0
11
187.97499999999999
21
-54.125000000000007
31
0
0
LWPOLYLINE
5
109
100
AcDbEntity
8
0
100
AcDbPolyline
90
8
70
1
43
0.0
10
226.07500000000002
20
-41.125
10
226.07500000000002
20
-54.125000000000007
42
-0.41421356237309509
10
225.57500000000002
20
-54.625
10
212.57499999999999
20
-54.625000000000014
42
-0.41421356237309509
10
212.07499999999999
20
-54.125000000000007
10
212.07499999999999
20
-41.125
42
-0.41421356237309509
10
212.57499999999999
20
-40.625
10
225.57500000000002
20
-40.624999999999993
42
-0.41421356237309509
0
ARC
5
110
100
AcDbEntity
8
0
100
AcDbCircle
10
187.47499999999999
20
-41.125
30
0
40
0.50000000000000711
210
0
220
0
230
1
100
AcDbArc
50
0
51
90
0
LINE
5
111
100
AcDbEntity
8
0
100
AcDbLine
10
174.47500000000002
20
-54.625
30
0
11
187.47499999999999
21
-54.625
31
0
0
LINE
5
112
100
AcDbEntity
8
0
100
AcDbLine
10
174.47500000000002
20
-40.625
30
0
11
187.47499999999999
21
-40.625
31
0
0
ARC
5
113
100
AcDbEntity
8
0
100
AcDbCircle
10
187.47499999999999
20
-54.125000000000007
30
0
40
0.49999999999999822
210
0
220
0
230
1
100
AcDbArc
50
-90
51
0
0
LINE
5
114
100
AcDbEntity
8
0
100
AcDbLine
10
166.83125000000001
20
-41.125
30
0
11
166.83125000000001
21
-54.125000000000007
31
0
0
LINE
5
115
100
AcDbEntity
8
0
100
AcDbLine
10
167.33125000000001
20
-54.625
30
0
11
180.33125000000001
21
-54.625
31
0
0
ARC
5
116
100
AcDbEntity
8
0
100
AcDbCircle
10
167.33125000000001
20
-54.125000000000007
30
0
40
0.50000000000000711
210
0
220
0
230
1
100
AcDbArc
50
180
51
270
0
LWPOLYLINE
5
117
100
AcDbEntity
8
0
100
AcDbPolyline
90
8
70
1
43
0.0
10
88.250000000000014
20
-41.125
10
88.25
20
-54.125000000000007
42
0.41421356237309509
10
88.75
20
-54.625
10
101.75
20
-54.625
42
0.41421356237309509
10
102.25000000000001
20
-54.125000000000007
10
102.25000000000001
20
-41.125
42
0.41421356237309509
10
101.75
20
-40.625
10
88.75
20
-40.625
42
0.41421356237309509
0
ARC
5
118
100
AcDbEntity
8
0
100
AcDbCircle
10
146.99375000000001
20
-41.125
30
0
40
0.50000000000000711
210
0
220
0
230
1
100
AcDbArc
50
0
51
90
0
LWPOLYLINE
5
119
100
AcDbEntity
8
0
100
AcDbPolyline
90
8
70
1
43
0.0
10
120.8
20
-54.625
42
0.41421356237309509
10
121.30000000000001
20
-54.125000000000007
10
121.30000000000001
20
-41.125
42
0.41421356237309509
10
120.8
20
-40.625
10
107.80000000000001
20
-40.625
42
0.41421356237309509
10
107.30000000000001
20
-41.125
10
107.30000000000001
20
-54.125000000000007
42
0.41421356237309509
10
107.80000000000001
20
-54.625
0
LINE
5
120
100
AcDbEntity
8
0
100
AcDbLine
10
126.85000000000001
20
-54.625
30
0
11
139.84999999999999
21
-54.625
31
0
0
ARC
5
121
100
AcDbEntity
8
0
100
AcDbCircle
10
126.85000000000001
20
-54.125000000000007
30
0
40
0.50000000000000711
210
0
220
0
230
1
100
AcDbArc
50
180
51
270
0
LINE
5
122
100
AcDbEntity
8
0
100
AcDbLine
10
147.49375000000003
20
-41.125
30
0
11
147.49375000000001
21
-54.125000000000007
31
0
0
LINE
5
123
100
AcDbEntity
8
0
100
AcDbLine
10
133.99375000000001
20
-54.625
30
0
11
146.99375000000001
21
-54.625
31
0
0
LINE
5
124
100
AcDbEntity
8
0
100
AcDbLine
10
126.85000000000001
20
-40.625
30
0
11
139.84999999999999
21
-40.625
31
0
0
LINE
5
125
100
AcDbEntity
8
0
100
AcDbLine
10
133.99375000000001
20
-40.625
30
0
11
146.99375000000001
21
-40.625
31
0
0
ARC
5
126
100
AcDbEntity
8
0
100
AcDbCircle
10
146.99375000000001
20
-54.125000000000007
30
0
40
0.49999999999999822
210
0
220
0
230
1
100
AcDbArc
50
-90
51
0
0
ARC
5
127
100
AcDbEntity
8
0
100
AcDbCircle
10
126.85000000000001
20
-41.125
30
0
40
0.49999999999999822
210
0
220
-0
230
1
100
AcDbArc
50
90
51
180
0
LINE
5
128
100
AcDbEntity
8
0
100
AcDbLine
10
126.34999999999999
20
-41.125
30
0
11
126.34999999999999
21
-54.125000000000007
31
0
0
ARC
5
129
100
AcDbEntity
8
0
100
AcDbCircle
10
299.39375000000001
20
-35.075000000000003
30
0
40
0.49999999999999822
210
0
220
0
230
1
100
AcDbArc
50
-90
51
0
0
ARC
5
130
100
AcDbEntity
8
0
100
AcDbCircle
10
286.39375000000001
20
-35.075000000000003
30
0
40
0.50000000000000711
210
0
220
0
230
1
100
AcDbArc
50
180
51
270
0
LWPOLYLINE
5
131
100
AcDbEntity
8
0
100
AcDbPolyline
90
8
70
1
43
0.0
10
239.86250000000001
20
-35.575000000000003
42
0.41421356237309509
10
240.36250000000001
20
-35.075000000000003
10
240.36250000000001
20
-22.074999999999999
42
0.41421356237309509
10
239.86250000000001
20
-21.575000000000003
10
226.86250000000001
20
-21.575000000000003
42
0.41421356237309509
10
226.36250000000004
20
-22.074999999999999
10
226.36250000000001
20
-35.075000000000003
42
0.41421356237309509
10
226.86250000000001
20
-35.575000000000003
0
LWPOLYLINE
5
132
100
AcDbEntity
8
0
100
AcDbPolyline
90
8
70
1
43
0.0
10
245.91250000000002
20
-35.575000000000003
10
258.91250000000002
20
-35.575000000000003
42
0.41421356237309509
10
259.41250000000002
20
-35.075000000000003
10
259.41250000000002
20
-22.074999999999999
42
0.41421356237309509
10
258.91250000000002
20
-21.575000000000003
10
245.91250000000002
20
-21.575000000000003
42
0.41421356237309509
10
245.41250000000002
20
-22.074999999999999
10
245.41250000000002
20
-35.075000000000003
42
0.41421356237309509
0
LWPOLYLINE
5
133
100
AcDbEntity
8
0
100
AcDbPolyline
90
8
70
1
43
0.0
10
264.46249999999998
20
-22.074999999999999
10
264.46249999999998
20
-35.075000000000003
42
0.41421356237309509
10
264.96249999999998
20
-35.575000000000003
10
277.96249999999998
20
-35.575000000000003
42
0.41421356237309509
10
278.46250000000003
20
-35.075000000000003
10
278.46250000000003
20
-22.074999999999999
42
0.41421356237309509
10
277.96249999999998
20
-21.575000000000003
10
264.96249999999998
20
-21.575000000000003
42
0.41421356237309509
0
LINE
5
134
100
AcDbEntity
8
0
100
AcDbLine
10
299.89375000000001
20
-22.074999999999999
30
0
11
299.89375000000001
21
-35.075000000000003
31
0
0
LINE
5
135
100
AcDbEntity
8
0
100
AcDbLine
10
286.39375000000001
20
-35.575000000000003
30
0
11
299.39375000000001
21
-35.575000000000003
31
0
0
LWPOLYLINE
5
136
100
AcDbEntity
8
0
100
AcDbPolyline
90
8
70
1
43
0.0
10
188.76249999999999
20
-21.575000000000003
10
201.76249999999999
20
-21.574999999999992
42
-0.41421356237309509
10
202.26249999999999
20
-22.074999999999999
10
202.26249999999999
20
-35.075000000000003
42
-0.41421356237309509
10
201.76249999999999
20
-35.575000000000003
10
188.76249999999999
20
-35.57500000000001
42
-0.41421356237309509
10
188.26249999999999
20
-35.075000000000003
10
188.26249999999999
20
-22.074999999999999
42
-0.41421356237309509
0
LWPOLYLINE
5
137
100
AcDbEntity
8
0
100
AcDbPolyline
90
20
70
1
43
0.0
10
178.44999999999999
20
-22.074999999999999
42
0.41421356237309509
10
177.94999999999999
20
-21.575000000000003
10
136.375
20
-21.575000000000003
42
0.41421356237309509
10
135.875
20
-22.074999999999999
10
135.875
20
-22.575000000000003
10
135.11250000000001
20
-22.575000000000003
42
0.41421356237309509
10
134.61250000000001
20
-23.075000000000003
10
134.61250000000001
20
-37.075000000000003
42
0.41421356237309509
10
135.11250000000001
20
-37.575000000000003
10
141.11250000000001
20
-37.575000000000003
42
0.41421356237309509
10
141.61250000000001
20
-37.075000000000003
10
141.61250000000001
20
-35.575000000000003
10
172.71250000000003
20
-35.575000000000003
10
172.71250000000003
20
-37.075000000000003
42
0.41421356237309509
10
173.21250000000003
20
-37.575000000000003
10
179.21250000000001
20
-37.575000000000003
42
0.41421356237309509
10
179.71250000000001
20
-37.075000000000003
10
179.71250000000001
20
-23.075000000000003
42
0.41421356237309509
10
179.21250000000001
20
-22.574999999999999
10
178.44999999999999
20
-22.574999999999999
0
LWPOLYLINE
5
138
100
AcDbEntity
8
0
100
AcDbPolyline
90
8
70
1
43
0.0
10
207.8125
20
-35.575000000000003
10
220.8125
20
-35.575000000000003
42
0.41421356237309509
10
221.3125
20
-35.075000000000003
10
221.3125
20
-22.074999999999999
42
0.41421356237309509
10
220.8125
20
-21.575000000000003
10
207.8125
20
-21.575000000000003
42
0.41421356237309509
10
207.3125
20
-22.074999999999999
10
207.3125
20
-35.075000000000003
42
0.41421356237309509
0
LWPOLYLINE
5
139
100
AcDbEntity
8
0
100
AcDbPolyline
90
8
70
1
43
0.0
10
74.462500000000006
20
-21.575000000000003
10
87.46250000000002
20
-21.574999999999992
42
-0.41421356237309509
10
87.962500000000006
20
-22.074999999999999
10
87.962500000000006
20
-35.075000000000003
42
-0.41421356237309509
10
87.46250000000002
20
-35.575000000000003
10
74.462500000000006
20
-35.575000000000003
42
-0.41421356237309509
10
73.962500000000006
20
-35.075000000000003
10
73.962500000000006
20
-22.074999999999999
42
-0.41421356237309509
0
LWPOLYLINE
5
140
100
AcDbEntity
8
0
100
AcDbPolyline
90
8
70
1
43
0.0
10
93.512500000000003
20
-35.575000000000003
10
106.51250000000002
20
-35.575000000000003
42
0.41421356237309509
10
107.01250000000002
20
-35.075000000000003
10
107.01250000000002
20
-22.074999999999999
42
0.41421356237309509
10
106.51250000000002
20
-21.575000000000003
10
93.512500000000003
20
-21.575000000000003
42
0.41421356237309509
10
93.012499999999989
20
-22.074999999999999
10
93.012499999999989
20
-35.075000000000003
42
0.41421356237309509
0
LWPOLYLINE
5
141
100
AcDbEntity
8
0
100
AcDbPolyline
90
8
70
1
43
0.0
10
112.0625
20
-22.074999999999999
10
112.0625
20
-35.075000000000003
42
0.41421356237309509
10
112.56250000000001
20
-35.575000000000003
10
125.5625
20
-35.575000000000003
42
0.41421356237309509
10
126.06250000000001
20
-35.075000000000003
10
126.06250000000001
20
-22.074999999999999
42
0.41421356237309509
10
125.5625
20
-21.575000000000003
10
112.56250000000001
20
-21.575000000000003
42
0.41421356237309509
0
LINE
5
142
100
AcDbEntity
8
0
100
AcDbLine
10
74.9375
20
-59.675000000000004
30
0
11
82.700000000000017
21
-59.675000000000004
31
0
0
LINE
5
143
100
AcDbEntity
8
0
100
AcDbLine
10
69.200000000000003
20
-72.674999999999997
30
0
11
69.200000000000003
21
-73.174999999999997
31
0
0
ARC
5
144
100
AcDbEntity
8
0
100
AcDbCircle
10
61.268749999999997
20
-60.174999999999997
30
0
40
0.49999999999999822
210
0
220
0
230
1
100
AcDbArc
50
0
51
90
0
ARC
5
145
100
AcDbEntity
8
0
100
AcDbCircle
10
61.268749999999997
20
-73.174999999999997
30
0
40
0.49999999999999822
210
0
220
0
230
1
100
AcDbArc
50
-90
51
0
0
LINE
5
146
100
AcDbEntity
8
0
100
AcDbLine
10
69.700000000000003
20
-73.674999999999997
30
0
11
82.700000000000017
21
-73.674999999999997
31
0
0
LINE
5
147
100
AcDbEntity
8
0
100
AcDbLine
10
61.768749999999997
20
-60.174999999999997
30
0
11
61.768749999999997
21
-73.174999999999997
31
0
0
LINE
5
148
100
AcDbEntity
8
0
100
AcDbLine
10
48.268750000000004
20
-73.674999999999997
30
0
11
61.268749999999997
21
-73.674999999999997
31
0
0
ARC
5
149
100
AcDbEntity
8
0
100
AcDbCircle
10
45.887500000000003
20
-73.174999999999997
30
0
40
0.49999999999999822
210
0
220
0
230
1
100
AcDbArc
50
180
51
270
0
LINE
5
150
100
AcDbEntity
8
0
100
AcDbLine
10
48.268750000000004
20
-59.675000000000004
30
0
11
61.268749999999997
21
-59.675000000000004
31
0
0
LWPOLYLINE
5
151
100
AcDbEntity
8
0
100
AcDbPolyline
90
8
70
1
43
0.0
10
306.53750000000002
20
-54.625
42
0.41421356237309509
10
307.03750000000002
20
-54.125000000000007
10
307.03750000000002
20
-41.125
42
0.41421356237309509
10
306.53750000000002
20
-40.625
10
293.53750000000002
20
-40.625
42
0.41421356237309509
10
293.03750000000002
20
-41.125
10
293.03750000000002
20
-54.125000000000007
42
0.41421356237309509
10
293.53750000000002
20
-54.625
0
LINE
5
152
100
AcDbEntity
8
0
100
AcDbLine
10
45.887500000000003
20
-59.675000000000004
30
0
11
58.88750000000001
21
-59.675000000000004
31
0
0
ARC
5
153
100
AcDbEntity
8
0
100
AcDbCircle
10
45.887500000000003
20
-60.174999999999997
30
0
40
0.49999999999999822
210
0
220
-0
230
1
100
AcDbArc
50
90
51
180
0
LINE
5
154
100
AcDbEntity
8
0
100
AcDbLine
10
45.387500000000003
20
-60.174999999999997
30
0
11
45.387500000000003
21
-73.174999999999997
31
0
0
LINE
5
155
100
AcDbEntity
8
0
100
AcDbLine
10
45.887500000000003
20
-73.674999999999997
30
0
11
58.88750000000001
21
-73.674999999999997
31
0
0
LINE
5
156
100
AcDbEntity
8
0
100
AcDbLine
10
246.38750000000002
20
-72.174999999999997
30
0
11
246.38750000000002
21
-58.174999999999997
31
0
0
LWPOLYLINE
5
157
100
AcDbEntity
8
0
100
AcDbPolyline
90
8
70
1
43
0.0
10
264.17500000000007
20
-41.125
42
0.41421356237309509
10
263.67500000000001
20
-40.625
10
250.67500000000001
20
-40.625
42
0.41421356237309509
10
250.17500000000001
20
-41.125
10
250.17500000000001
20
-54.125000000000007
42
0.41421356237309509
10
250.67500000000001
20
-54.625
10
263.67500000000001
20
-54.625
42
0.41421356237309509
10
264.17500000000007
20
-54.125000000000007
0
LWPOLYLINE
5
158
100
AcDbEntity
8
0
100
AcDbPolyline
90
8
70
1
43
0.0
10
245.12500000000003
20
-41.125
10
245.12500000000003
20
-54.125000000000007
42
-0.41421356237309509
10
244.62500000000003
20
-54.625
10
231.625
20
-54.625000000000014
42
-0.41421356237309509
10
231.125
20
-54.125000000000007
10
231.125
20
-41.125
42
-0.41421356237309509
10
231.625
20
-40.625
10
244.62500000000003
20
-40.624999999999993
42
-0.41421356237309509
0
LWPOLYLINE
5
159
100
AcDbEntity
8
0
100
AcDbPolyline
90
8
70
1
43
0.0
10
283.22500000000002
20
-41.125
42
0.41421356237309509
10
282.72500000000002
20
-40.625
10
269.72500000000002
20
-40.625
42
0.41421356237309509
10
269.22500000000002
20
-41.125
10
269.22500000000002
20
-54.125000000000007
42
0.41421356237309509
10
269.72500000000002
20
-54.625
10
282.72500000000002
20
-54.625
42
0.41421356237309509
10
283.22500000000002
20
-54.125000000000007
0
LWPOLYLINE
5
160
100
AcDbEntity
8
0
100
AcDbPolyline
90
20
70
1
43
0.0
10
150.16249999999999
20
-72.674999999999997
10
147.0505
20
-72.675000000000011
42
-0.41421356237309509
10
146.5505
20
-72.174999999999997
10
146.5505
20
-58.174999999999997
42
-0.41421356237309509
10
147.0505
20
-57.674999999999997
10
153.0505
20
-57.67499999999999
42
-0.41421356237309509
10
153.5505
20
-58.174999999999997
10
153.5505
20
-59.675000000000004
10
160.77449999999999
20
-59.675000000000004
10
160.77449999999999
20
-58.174999999999997
42
-0.41421356237309509
10
161.27449999999999
20
-57.674999999999997
10
167.27450000000002
20
-57.67499999999999
42
-0.41421356237309509
10
167.77450000000002
20
-58.174999999999997
10
167.77450000000002
20
-72.174999999999997
42
-0.41421356237309509
10
167.27450000000002
20
-72.674999999999997
10
164.16250000000002
20
-72.674999999999997
10
164.16250000000002
20
-73.174999999999997
42
-0.41421356237309509
10
163.66250000000002
20
-73.674999999999997
10
150.66249999999999
20
-73.675000000000011
42
-0.41421356237309509
10
150.16249999999999
20
-73.174999999999997
0
LWPOLYLINE
5
161
100
AcDbEntity
8
0
100
AcDbPolyline
90
14
70
1
43
0.0
10
183.21250000000003
20
-60.174999999999997
42
0.41421356237309509
10
182.71250000000003
20
-59.675000000000004
10
179.71250000000001
20
-59.675000000000004
10
179.71250000000001
20
-58.174999999999997
42
0.41421356237309509
10
179.21250000000001
20
-57.674999999999997
10
173.21250000000003
20
-57.674999999999997
42
0.41421356237309509
10
172.71250000000003
20
-58.174999999999997
10
172.71250000000003
20
-59.675000000000004
10
169.71250000000001
20
-59.675000000000004
42
0.41421356237309509
10
169.21250000000001
20
-60.174999999999997
10
169.21250000000001
20
-73.174999999999997
42
0.41421356237309509
10
169.71250000000001
20
-73.674999999999997
10
182.71250000000003
20
-73.674999999999997
42
0.41421356237309509
10
183.21250000000003
20
-73.174999999999997
0
ARC
5
162
100
AcDbEntity
8
0
100
AcDbCircle
10
244.62500000000003
20
-73.174999999999997
30
0
40
0.49999999999999822
210
0
220
0
230
1
100
AcDbArc
50
-90
51
0
0
ARC
5
163
100
AcDbEntity
8
0
100
AcDbCircle
10
112.53749999999999
20
-72.174999999999997
30
0
40
0.49999999999999822
210
0
220
0
230
1
100
AcDbArc
50
-90
51
0
0
LINE
5
164
100
AcDbEntity
8
0
100
AcDbLine
10
83.987499999999997
20
-59.675000000000004
30
0
11
106.03749999999999
21
-59.675000000000004
31
0
0
LINE
5
165
100
AcDbEntity
8
0
100
AcDbLine
10
74.9375
20
-59.675000000000004
30
0
11
85.081249999999997
21
-59.675000000000004
31
0
0
LINE
5
166
100
AcDbEntity
8
0
100
AcDbLine
10
112.53749999999999
20
-72.674999999999997
30
0
11
111.77500000000002
21
-72.674999999999997
31
0
0
LWPOLYLINE
5
167
100
AcDbEntity
8
0
100
AcDbPolyline
90
8
70
1
43
0.0
10
129.17449999999999
20
-72.674999999999997
42
0.41421356237309509
10
129.67450000000002
20
-72.174999999999997
10
129.67450000000002
20
-58.174999999999997
42
0.41421356237309509
10
129.17449999999999
20
-57.674999999999997
10
123.17450000000001
20
-57.674999999999997
42
0.41421356237309509
10
122.67449999999999
20
-58.174999999999997
10
122.67449999999999
20
-72.174999999999997
42
0.41421356237309509
10
123.17450000000001
20
-72.674999999999997
0
LINE
5
168
100
AcDbEntity
8
0
100
AcDbLine
10
106.03749999999999
20
-59.675000000000004
30
0
11
106.03749999999999
21
-58.174999999999997
31
0
0
LINE
5
169
100
AcDbEntity
8
0
100
AcDbLine
10
74.4375
20
-57.674999999999997
30
0
11
68.4375
21
-57.674999999999997
31
0
0
ARC
5
170
100
AcDbEntity
8
0
100
AcDbCircle
10
201.78750000000002
20
-72.174999999999997
30
0
40
0.50000000000000711
210
0
220
0
230
1
100
AcDbArc
50
180
51
270
0
LWPOLYLINE
5
171
100
AcDbEntity
8
0
100
AcDbPolyline
90
4
70
1
43
0.0
10
111.77500000000002
20
-72.674999999999997
10
111.77500000000002
20
-73.174999999999997
42
-0.41421356237309509
10
111.27500000000001
20
-73.674999999999997
42
0.41421356237309509
10
111.77500000000002
20
-73.174999999999997
0
ARC
5
172
100
AcDbEntity
8
0
100
AcDbCircle
10
239.88749999999999
20
-58.174999999999997
30
0
40
0.49999999999999822
210
0
220
-0
230
1
100
AcDbArc
50
90
51
180
0
LWPOLYLINE
5
173
100
AcDbEntity
8
0
100
AcDbPolyline
90
8
70
1
43
0.0
10
191.15049999999999
20
-57.674999999999997
10
185.15049999999999
20
-57.674999999999997
42
0.41421356237309509
10
184.65049999999997
20
-58.174999999999997
10
184.65049999999997
20
-72.174999999999997
42
0.41421356237309509
10
185.15049999999999
20
-72.674999999999997
10
191.15049999999999
20
-72.674999999999997
42
0.41421356237309509
10
191.65050000000002
20
-72.174999999999997
10
191.65050000000002
20
-58.174999999999997
42
0.41421356237309509
0
LWPOLYLINE
5
174
100
AcDbEntity
8
0
100
AcDbPolyline
90
14
70
1
43
0.0
10
145.11250000000001
20
-60.174999999999997
42
0.41421356237309509
10
144.61250000000001
20
-59.675000000000004
10
141.61250000000001
20
-59.675000000000004
10
141.61250000000001
20
-58.174999999999997
42
0.41421356237309509
10
141.11250000000001
20
-57.674999999999997
10
135.11250000000001
20
-57.674999999999997
42
0.41421356237309509
10
134.61250000000001
20
-58.174999999999997
10
134.61250000000001
20
-59.675000000000004
10
131.61250000000001
20
-59.675000000000004
42
0.41421356237309509
10
131.11250000000001
20
-60.174999999999997
10
131.11250000000001
20
-73.174999999999997
42
0.41421356237309509
10
131.61250000000001
20
-73.674999999999997
10
144.61250000000001
20
-73.674999999999997
42
0.41421356237309509
10
145.11250000000001
20
-73.174999999999997
0
LINE
5
175
100
AcDbEntity
8
0
100
AcDbLine
10
245.88750000000002
20
-57.674999999999997
30
0
11
239.88749999999999
21
-57.674999999999997
31
0
0
ARC
5
176
100
AcDbEntity
8
0
100
AcDbCircle
10
245.88750000000002
20
-58.174999999999997
30
0
40
0.50000000000000711
210
0
220
0
230
1
100
AcDbArc
50
0
51
90
0
LINE
5
177
100
AcDbEntity
8
0
100
AcDbLine
10
231.625
20
-73.674999999999997
30
0
11
244.62500000000003
21
-73.674999999999997
31
0
0
ARC
5
178
100
AcDbEntity
8
0
100
AcDbCircle
10
245.88750000000002
20
-72.174999999999997
30
0
40
0.49999999999999822
210
0
220
0
230
1
100
AcDbArc
50
-90
51
0
0
ARC
5
179
100
AcDbEntity
8
0
100
AcDbCircle
10
74.4375
20
-58.174999999999997
30
0
40
0.49999999999999822
210
0
220
0
230
1
100
AcDbArc
50
0
51
90
0
LINE
5
180
100
AcDbEntity
8
0
100
AcDbLine
10
202.55000000000001
20
-72.674999999999997
30
0
11
201.78750000000002
21
-72.674999999999997
31
0
0
LINE
5
181
100
AcDbEntity
8
0
100
AcDbLine
10
203.05000000000004
20
-73.674999999999997
30
0
11
230.33750000000001
21
-73.674999999999997
31
0
0
LINE
5
182
100
AcDbEntity
8
0
100
AcDbLine
10
67.9375
20
-72.174999999999997
30
0
11
67.9375
21
-58.174999999999997
31
0
0
ARC
5
183
100
AcDbEntity
8
0
100
AcDbCircle
10
112.53749999999999
20
-58.174999999999997
30
0
40
0.50000000000000711
210
0
220
0
230
1
100
AcDbArc
50
0
51
90
0
LINE
5
184
100
AcDbEntity
8
0
100
AcDbLine
10
208.28749999999999
20
-59.675000000000004
30
0
11
230.33750000000001
21
-59.675000000000004
31
0
0
ARC
5
185
100
AcDbEntity
8
0
100
AcDbCircle
10
69.700000000000003
20
-73.174999999999997
30
0
40
0.49999999999999822
210
0
220
0
230
1
100
AcDbArc
50
180
51
270
0
LINE
5
186
100
AcDbEntity
8
0
100
AcDbLine
10
113.03750000000001
20
-72.174999999999997
30
0
11
113.03750000000001
21
-58.174999999999997
31
0
0
LINE
5
187
100
AcDbEntity
8
0
100
AcDbLine
10
83.987499999999997
20
-73.674999999999997
30
0
11
111.27500000000001
21
-73.674999999999997
31
0
0
ARC
5
188
100
AcDbEntity
8
0
100
AcDbCircle
10
68.4375
20
-58.174999999999997
30
0
40
0.49999999999999822
210
0
220
-0
230
1
100
AcDbArc
50
90
51
180
0
LWPOLYLINE
5
189
100
AcDbEntity
8
0
100
AcDbPolyline
90
4
70
1
43
0.0
10
202.55000000000001
20
-72.674999999999997
10
202.55000000000001
20
-73.174999999999997
42
0.41421356237309509
10
203.05000000000004
20
-73.675000000000011
42
-0.41421356237309509
10
202.55000000000001
20
-73.174999999999997
0
LINE
5
190
100
AcDbEntity
8
0
100
AcDbLine
10
245.12500000000003
20
-72.674999999999997
30
0
11
245.12500000000003
21
-73.174999999999997
31
0
0
LINE
5
191
100
AcDbEntity
8
0
100
AcDbLine
10
207.78750000000002
20
-57.674999999999997
30
0
11
201.78750000000002
21
-57.674999999999997
31
0
0
LINE
5
192
100
AcDbEntity
8
0
100
AcDbLine
10
74.9375
20
-59.675000000000004
30
0
11
74.9375
21
-58.174999999999997
31
0
0
LINE
5
193
100
AcDbEntity
8
0
100
AcDbLine
10
72.081249999999997
20
-73.674999999999997
30
0
11
85.081249999999997
21
-73.674999999999997
31
0
0
LINE
5
194
100
AcDbEntity
8
0
100
AcDbLine
10
201.28749999999999
20
-72.174999999999997
30
0
11
201.28749999999999
21
-58.174999999999997
31
0
0
LINE
5
195
100
AcDbEntity
8
0
100
AcDbLine
10
112.53749999999999
20
-57.674999999999997
30
0
11
106.53750000000001
21
-57.674999999999997
31
0
0
ARC
5
196
100
AcDbEntity
8
0
100
AcDbCircle
10
106.53750000000001
20
-58.174999999999997
30
0
40
0.49999999999999822
210
0
220
-0
230
1
100
AcDbArc
50
90
51
180
0
LINE
5
197
100
AcDbEntity
8
0
100
AcDbLine
10
69.200000000000003
20
-72.674999999999997
30
0
11
68.4375
21
-72.674999999999997
31
0
0
LINE
5
198
100
AcDbEntity
8
0
100
AcDbLine
10
208.28749999999999
20
-59.675000000000004
30
0
11
208.28749999999999
21
-58.174999999999997
31
0
0
ARC
5
199
100
AcDbEntity
8
0
100
AcDbCircle
10
68.4375
20
-72.174999999999997
30
0
40
0.49999999999999822
210
0
220
0
230
1
100
AcDbArc
50
180
51
270
0
ARC
5
200
100
AcDbEntity
8
0
100
AcDbCircle
10
207.78750000000002
20
-58.174999999999997
30
0
40
0.50000000000000711
210
0
220
0
230
1
100
AcDbArc
50
0
51
90
0
ARC
5
201
100
AcDbEntity
8
0
100
AcDbCircle
10
201.78750000000002
20
-58.174999999999997
30
0
40
0.49999999999999822
210
0
220
-0
230
1
100
AcDbArc
50
90
51
180
0
LINE
5
202
100
AcDbEntity
8
0
100
AcDbLine
10
229.24375000000001
20
-59.675000000000004
30
0
11
239.38749999999999
21
-59.675000000000004
31
0
0
LINE
5
203
100
AcDbEntity
8
0
100
AcDbLine
10
229.24375000000001
20
-73.674999999999997
30
0
11
242.24375000000003
21
-73.674999999999997
31
0
0
LINE
5
204
100
AcDbEntity
8
0
100
AcDbLine
10
268.9375
20
-60.174999999999997
30
0
11
268.9375
21
-73.174999999999997
31
0
0
LINE
5
205
100
AcDbEntity
8
0
100
AcDbLine
10
255.43750000000003
20
-59.675000000000004
30
0
11
268.4375
21
-59.675000000000004
31
0
0
LINE
5
206
100
AcDbEntity
8
0
100
AcDbLine
10
253.05625000000003
20
-73.674999999999997
30
0
11
266.05624999999998
21
-73.674999999999997
31
0
0
ARC
5
207
100
AcDbEntity
8
0
100
AcDbCircle
10
268.4375
20
-73.174999999999997
30
0
40
0.49999999999999822
210
0
220
0
230
1
100
AcDbArc
50
-90
51
0
0
ARC
5
208
100
AcDbEntity
8
0
100
AcDbCircle
10
253.05625000000003
20
-60.174999999999997
30
0
40
0.49999999999999822
210
0
220
-0
230
1
100
AcDbArc
50
90
51
180
0
LINE
5
209
100
AcDbEntity
8
0
100
AcDbLine
10
255.43750000000003
20
-73.674999999999997
30
0
11
268.4375
21
-73.674999999999997
31
0
0
ARC
5
210
100
AcDbEntity
8
0
100
AcDbCircle
10
253.05625000000003
20
-73.174999999999997
30
0
40
0.50000000000000711
210
0
220
0
230
1
100
AcDbArc
50
180
51
270
0
ARC
5
211
100
AcDbEntity
8
0
100
AcDbCircle
10
268.4375
20
-60.174999999999997
30
0
40
0.50000000000000711
210
0
220
0
230
1
100
AcDbArc
50
0
51
90
0
LINE
5
212
100
AcDbEntity
8
0
100
AcDbLine
10
252.55625000000003
20
-60.174999999999997
30
0
11
252.55625000000003
21
-73.174999999999997
31
0
0
LINE
5
213
100
AcDbEntity
8
0
100
AcDbLine
10
253.05625000000003
20
-59.675000000000004
30
0
11
266.05624999999998
21
-59.675000000000004
31
0
0
LWPOLYLINE
5
214
100
AcDbEntity
8
0
100
AcDbPolyline
90
8
70
1
43
0.0
10
97.77500000000002
20
-3.0249999999999999
10
97.775000000000006
20
-16.024999999999999
42
0.41421356237309509
10
98.275000000000006
20
-16.524999999999999
10
111.27500000000001
20
-16.525000000000002
42
0.41421356237309509
10
111.77500000000002
20
-16.024999999999999
10
111.77500000000002
20
-3.0249999999999999
42
0.41421356237309509
10
111.27500000000001
20
-2.5249999999999999
10
98.275000000000006
20
-2.5249999999999999
42
0.41421356237309509
0
LWPOLYLINE
5
215
100
AcDbEntity
8
0
100
AcDbPolyline
90
8
70
1
43
0.0
10
235.10000000000002
20
-16.525000000000002
42
0.41421356237309509
10
235.60000000000002
20
-16.024999999999999
10
235.60000000000002
20
-3.0249999999999999
42
0.41421356237309509
10
235.10000000000002
20
-2.5249999999999999
10
222.10000000000002
20
-2.5249999999999999
42
0.41421356237309509
10
221.59999999999999
20
-3.0249999999999999
10
221.59999999999999
20
-16.024999999999999
42
0.41421356237309509
10
222.10000000000002
20
-16.525000000000002
0
LINE
5
216
100
AcDbEntity
8
0
100
AcDbLine
10
298.39375000000007
20
-10.612000000000002
30
0
11
297.51249999999999
21
-10.612000000000002
31
0
0
LWPOLYLINE
5
217
100
AcDbEntity
8
0
100
AcDbPolyline
90
8
70
1
43
0.0
10
216.55000000000001
20
-3.0249999999999999
10
216.55000000000004
20
-16.024999999999999
42
-0.41421356237309509
10
216.05000000000004
20
-16.525000000000002
10
203.05000000000004
20
-16.525000000000006
42
-0.41421356237309509
10
202.55000000000001
20
-16.024999999999999
10
202.55000000000001
20
-3.0249999999999999
42
-0.41421356237309509
10
203.05000000000004
20
-2.5249999999999999
10
216.05000000000004
20
-2.5249999999999928
42
-0.41421356237309509
0
LWPOLYLINE
5
218
100
AcDbEntity
8
0
100
AcDbPolyline
90
8
70
1
43
0.0
10
78.724999999999994
20
-3.0249999999999999
10
78.724999999999994
20
-16.024999999999999
42
0.41421356237309509
10
79.224999999999994
20
-16.524999999999999
10
92.224999999999994
20
-16.525000000000002
42
0.41421356237309509
10
92.725000000000009
20
-16.024999999999999
10
92.725000000000009
20
-3.0249999999999999
42
0.41421356237309509
10
92.224999999999994
20
-2.5249999999999999
10
79.224999999999994
20
-2.5249999999999999
42
0.41421356237309509
0
LWPOLYLINE
5
219
100
AcDbEntity
8
0
100
AcDbPolyline
90
8
70
1
43
0.0
10
197.50000000000003
20
-3.0249999999999999
42
0.41421356237309509
10
197.00000000000003
20
-2.5249999999999999
10
184.00000000000003
20
-2.5249999999999999
42
0.41421356237309509
10
183.5
20
-3.0249999999999999
10
183.5
20
-16.024999999999999
42
0.41421356237309509
10
184.00000000000003
20
-16.524999999999999
10
197.00000000000003
20
-16.525000000000002
42
0.41421356237309509
10
197.5
20
-16.024999999999999
0
LWPOLYLINE
5
220
100
AcDbEntity
8
0
100
AcDbPolyline
90
8
70
1
43
0.0
10
260.19999999999999
20
-2.5249999999999999
42
0.41421356237309509
10
259.69999999999999
20
-3.0249999999999999
10
259.69999999999999
20
-16.024999999999999
42
0.41421356237309509
10
260.19999999999999
20
-16.525000000000002
10
273.19999999999999
20
-16.525000000000002
42
0.41421356237309509
10
273.69999999999999
20
-16.024999999999999
10
273.69999999999999
20
-3.0249999999999999
42
0.41421356237309509
10
273.19999999999999
20
-2.5249999999999999
0
LWPOLYLINE
5
221
100
AcDbEntity
8
0
100
AcDbPolyline
90
8
70
1
43
0.0
10
17.3125
20
-16.524999999999999
10
30.3125
20
-16.525000000000002
42
0.41421356237309509
10
30.812500000000004
20
-16.024999999999999
10
30.8125
20
-3.0249999999999999
42
0.41421356237309509
10
30.3125
20
-2.5249999999999999
10
17.3125
20
-2.5249999999999999
42
0.41421356237309509
10
16.8125
20
-3.0249999999999999
10
16.8125
20
-16.024999999999999
42
0.41421356237309509
0
LWPOLYLINE
5
222
100
AcDbEntity
8
0
100
AcDbPolyline
90
8
70
1
43
0.0
10
60.174999999999997
20
-2.5249999999999999
10
73.174999999999997
20
-2.5250000000000017
42
-0.41421356237309509
10
73.674999999999997
20
-3.0249999999999999
10
73.674999999999997
20
-16.024999999999999
42
-0.41421356237309509
10
73.174999999999997
20
-16.524999999999999
10
60.174999999999997
20
-16.524999999999999
42
-0.41421356237309509
10
59.675000000000004
20
-16.024999999999999
10
59.675000000000004
20
-3.0249999999999999
42
-0.41421356237309509
0
LWPOLYLINE
5
223
100
AcDbEntity
8
0
100
AcDbPolyline
90
8
70
1
43
0.0
10
254.15000000000003
20
-16.525000000000002
42
0.41421356237309509
10
254.65000000000003
20
-16.024999999999999
10
254.65000000000003
20
-3.0249999999999999
42
0.41421356237309509
10
254.15000000000003
20
-2.5249999999999999
10
241.15000000000003
20
-2.5249999999999999
42
0.41421356237309509
10
240.65000000000001
20
-3.0249999999999999
10
240.65000000000001
20
-16.024999999999999
42
0.41421356237309509
10
241.15000000000003
20
-16.524999999999999
0
LWPOLYLINE
5
224
100
AcDbEntity
8
0
100
AcDbPolyline
90
8
70
1
43
0.0
10
130.82499999999999
20
-3.0249999999999999
42
0.41421356237309509
10
130.32499999999999
20
-2.5249999999999999
10
117.32500000000002
20
-2.5249999999999999
42
0.41421356237309509
10
116.82500000000002
20
-3.0249999999999999
10
116.82500000000002
20
-16.024999999999999
42
0.41421356237309509
10
117.32500000000002
20
-16.524999999999999
10
130.32499999999999
20
-16.525000000000002
42
0.41421356237309509
10
130.82499999999999
20
-16.024999999999999
0
LWPOLYLINE
5
225
100
AcDbEntity
8
0
100
AcDbPolyline
90
8
70
1
43
0.0
10
40.625
20
-16.024999999999999
42
0.41421356237309509
10
41.125
20
-16.525000000000002
10
54.125000000000007
20
-16.525000000000002
42
0.41421356237309509
10
54.625
20
-16.024999999999999
10
54.625
20
-3.0249999999999999
42
0.41421356237309509
10
54.125000000000007
20
-2.5249999999999999
10
41.125
20
-2.5249999999999999
42
0.41421356237309509
10
40.625
20
-3.0249999999999999
0
LWPOLYLINE
5
226
100
AcDbEntity
8
0
100
AcDbPolyline
90
8
70
1
43
0.0
10
176.06874999999999
20
-3.0249999999999999
10
176.06875000000002
20
-16.024999999999999
42
-0.41421356237309509
10
175.56875000000002
20
-16.524999999999999
10
162.56875000000002
20
-16.525000000000006
42
-0.41421356237309509
10
162.06874999999999
20
-16.024999999999999
10
162.06874999999999
20
-3.0249999999999999
42
-0.41421356237309509
10
162.56875000000002
20
-2.5249999999999999
10
175.56875000000002
20
-2.5249999999999928
42
-0.41421356237309509
0
LWPOLYLINE
5
227
100
AcDbEntity
8
0
100
AcDbPolyline
90
8
70
1
43
0.0
10
152.25625000000002
20
-3.0249999999999999
42
0.41421356237309509
10
151.75624999999999
20
-2.5249999999999999
10
138.75624999999999
20
-2.5249999999999999
42
0.41421356237309509
10
138.25624999999999
20
-3.0249999999999999
10
138.25624999999999
20
-16.024999999999999
42
0.41421356237309509
10
138.75624999999999
20
-16.525000000000002
10
151.75624999999999
20
-16.525000000000002
42
0.41421356237309509
10
152.25625000000002
20
-16.024999999999999
0
LINE
5
228
100
AcDbEntity
8
0
100
AcDbLine
10
299.39375000000001
20
-12.050000000000001
30
0
11
297.51249999999999
21
-12.050000000000001
31
0
0
ARC
5
229
100
AcDbEntity
8
0
100
AcDbCircle
10
297.01250000000005
20
-3.0249999999999999
30
0
40
0.50000000000000711
210
0
220
0
230
1
100
AcDbArc
50
0
51
90
0
LINE
5
230
100
AcDbEntity
8
0
100
AcDbLine
10
299.89375000000001
20
-12.550000000000001
30
0
11
299.89375000000001
21
-25.550000000000001
31
0
0
ARC
5
231
100
AcDbEntity
8
0
100
AcDbCircle
10
299.39375000000001
20
-12.550000000000001
30
0
40
0.50000000000000711
210
0
220
0
230
1
100
AcDbArc
50
0
51
90
0
ARC
5
232
100
AcDbEntity
8
0
100
AcDbCircle
10
284.01249999999999
20
-16.024999999999999
30
0
40
0.50000000000000711
210
0
220
0
230
1
100
AcDbArc
50
180
51
270
0
LINE
5
233
100
AcDbEntity
8
0
100
AcDbLine
10
283.51249999999999
20
-3.0249999999999999
30
0
11
283.51249999999999
21
-16.024999999999999
31
0
0
LINE
5
234
100
AcDbEntity
8
0
100
AcDbLine
10
298.89375000000001
20
-4.1120000000000001
30
0
11
298.89375000000001
21
-10.112000000000002
31
0
0
ARC
5
235
100
AcDbEntity
8
0
100
AcDbCircle
10
298.39375000000007
20
-4.1120000000000001
30
0
40
0.50000000000000711
210
0
220
0
230
1
100
AcDbArc
50
0
51
90
0
ARC
5
236
100
AcDbEntity
8
0
100
AcDbCircle
10
284.01249999999999
20
-3.0249999999999999
30
0
40
0.49999999999999989
210
0
220
-0
230
1
100
AcDbArc
50
90
51
180
0
LINE
5
237
100
AcDbEntity
8
0
100
AcDbLine
10
285.89375000000001
20
-16.525000000000002
30
0
11
285.89375000000007
21
-25.550000000000001
31
0
0
LINE
5
238
100
AcDbEntity
8
0
100
AcDbLine
10
298.39375000000007
20
-3.6120000000000001
30
0
11
297.51249999999999
21
-3.6120000000000001
31
0
0
LINE
5
239
100
AcDbEntity
8
0
100
AcDbLine
10
284.01249999999999
20
-2.5249999999999999
30
0
11
297.01250000000005
21
-2.5249999999999999
31
0
0
LINE
5
240
100
AcDbEntity
8
0
100
AcDbLine
10
284.01249999999999
20
-16.525000000000002
30
0
11
285.89375000000001
21
-16.525000000000002
31
0
0
LINE
5
241
100
AcDbEntity
8
0
100
AcDbLine
10
239.38749999999999
20
-59.675000000000004
30
0
11
239.38749999999999
21
-58.174999999999997
31
0
0
LWPOLYLINE
5
242
100
AcDbEntity
8
0
100
AcDbPolyline
90
8
70
1
43
0.0
10
36.362499999999997
20
-21.575000000000003
42
0.41421356237309509
10
35.862500000000004
20
-22.074999999999999
10
35.862500000000004
20
-35.075000000000003
42
0.41421356237309509
10
36.362499999999997
20
-35.575000000000003
10
49.362500000000004
20
-35.575000000000003
42
0.41421356237309509
10
49.862499999999997
20
-35.075000000000003
10
49.862499999999997
20
-22.074999999999999
42
0.41421356237309509
10
49.362500000000004
20
-21.575000000000003
0
LWPOLYLINE
5
243
100
AcDbEntity
8
0
100
AcDbPolyline
90
8
70
1
43
0.0
10
14.93125
20
-21.575000000000003
42
0.41421356237309509
10
14.43125
20
-22.074999999999999
10
14.43125
20
-35.075000000000003
42
0.41421356237309509
10
14.93125
20
-35.575000000000003
10
27.931249999999999
20
-35.575000000000003
42
0.41421356237309509
10
28.431249999999999
20
-35.075000000000003
10
28.431249999999999
20
-22.074999999999999
42
0.41421356237309509
10
27.931249999999999
20
-21.575000000000003
0
LWPOLYLINE
5
244
100
AcDbEntity
8
0
100
AcDbPolyline
90
8
70
1
43
0.0
10
68.912499999999994
20
-22.074999999999999
42
0.41421356237309509
10
68.412499999999994
20
-21.575000000000003
10
55.412500000000009
20
-21.575000000000003
42
0.41421356237309509
10
54.912500000000009
20
-22.074999999999999
10
54.912500000000009
20
-35.075000000000003
42
0.41421356237309509
10
55.412500000000009
20
-35.575000000000003
10
68.412499999999994
20
-35.575000000000003
42
0.41421356237309509
10
68.912499999999994
20
-35.075000000000003
0
ARC
5
245
100
AcDbEntity
8
0
100
AcDbCircle
10
284.39375000000001
20
-33.988
30
0
40
0.50000000000000711
210
0
220
0
230
1
100
AcDbArc
50
180
51
270
0
LINE
5
246
100
AcDbEntity
8
0
100
AcDbLine
10
285.89375000000001
20
-34.488
30
0
11
284.39375000000001
21
-34.488
31
0
0
LINE
5
247
100
AcDbEntity
8
0
100
AcDbLine
10
285.89375000000001
20
-27.488000000000007
30
0
11
284.39375000000001
21
-27.488000000000007
31
0
0
ARC
5
248
100
AcDbEntity
8
0
100
AcDbCircle
10
284.39375000000001
20
-27.988000000000003
30
0
40
0.49999999999999822
210
0
220
-0
230
1
100
AcDbArc
50
90
51
180
0
LINE
5
249
100
AcDbEntity
8
0
100
AcDbLine
10
283.89375000000001
20
-27.988000000000003
30
0
11
283.89375000000001
21
-33.988
31
0
0
ARC
5
250
100
AcDbEntity
8
0
100
AcDbCircle
10
298.39375000000007
20
-10.112000000000002
30
0
40
0.50000000000000044
210
0
220
0
230
1
100
AcDbArc
50
-90
51
0
0
LINE
5
251
100
AcDbEntity
8
0
100
AcDbLine
10
245.88750000000002
20
-72.674999999999997
30
0
11
245.12500000000003
21
-72.674999999999997
31
0
0
LINE
5
252
100
AcDbEntity
8
0
100
AcDbLine
10
297.51249999999999
20
-3.0249999999999999
30
0
11
297.51249999999999
21
-3.6120000000000001
31
0
0
LINE
5
253
100
AcDbEntity
8
0
100
AcDbLine
10
297.51249999999999
20
-10.612000000000002
30
0
11
297.51249999999999
21
-12.050000000000001
31
0
0
LINE
5
254
100
AcDbEntity
8
0
100
AcDbLine
10
285.89375000000001
20
-22.074999999999999
30
0
11
285.89375000000001
21
-27.488000000000007
31
0
0
LINE
5
255
100
AcDbEntity
8
0
100
AcDbLine
10
285.89375000000001
20
-34.488
30
0
11
285.89375000000001
21
-35.075000000000003
31
0
0
LWPOLYLINE
5
256
100
AcDbEntity
8
0
100
AcDbPolyline
90
72
70
1
43
0.0
10
321.32499999999999
20
-58.600000000000009
10
321.32499999999999
20
-17.599999999999998
42
0.41421356237310397
10
319.72500000000002
20
-16
10
315.92500000000001
20
-16.000000000000011
42
-0.41421356237309465
10
314.32499999999999
20
-14.400000000000013
10
314.32499999999999
20
-1.5999999999999992
42
0.41421356237309426
10
312.72500000000002
20
0
10
280.20625000000001
20
-3.6082248300317588e-14
42
-0.41421356237309515
10
278.60624999999999
20
1.6000000000000012
10
278.60624999999999
20
5.3999999999999995
42
0.41421356237309465
10
277.00625000000002
20
6.9999999999999982
10
239.72500000000002
20
6.9999999999999973
42
0.41421356237309565
10
238.125
20
5.4000000000000012
10
238.12500000000003
20
1.6000000000000014
42
-0.41421356237309598
10
236.52500000000003
20
3.3306690738754696e-15
10
181.38437499999998
20
-1.4155343563970746e-14
42
-0.41421356237310414
10
179.78437499999995
20
1.6000000000000014
10
179.78437499999998
20
5.4000000000000012
42
0.41421356237310369
10
178.18437499999999
20
6.9999999999999796
10
136.140625
20
7.0000000000000062
42
0.41421356237309565
10
134.54062499999998
20
5.4000000000000012
10
134.54062499999998
20
1.6000000000000012
42
-0.41421356237309598
10
132.94062499999998
20
-5.8286708792820718e-15
10
77.799999999999997
20
3.3306690738754696e-15
42
-0.4142135623730977
10
76.199999999999989
20
1.6000000000000012
10
76.199999999999989
20
5.4000000000000012
42
0.41421356237309725
10
74.599999999999994
20
6.9999999999999973
10
37.318750000000009
20
6.9999999999999982
42
0.41421356237309465
10
35.71875
20
5.3999999999999995
10
35.718750000000007
20
1.6000000000000012
42
-0.41421356237309587
10
34.118750000000006
20
-5.5511151231257827e-16
10
1.5999999999999996
20
-2.7755575615628914e-16
42
0.41421356237309515
10
2.7755575615628914e-16
20
-1.599999999999997
10
-5.5511151231257827e-16
20
-14.400000000000002
42
-0.41421356237309587
10
-1.6000000000000001
20
-16
10
-5.4000000000000021
20
-16
42
0.41421356237309465
10
-7.0000000000000018
20
-17.599999999999998
10
-7.0000000000000018
20
-58.600000000000009
42
0.41421356237309725
10
-5.4000000000000012
20
-60.200000000000017
10
-1.6000000000000003
20
-60.200000000000017
42
-0.41421356237309753
10
-3.0531133177191805e-15
20
-61.800000000000011
10
1.6653345369377348e-15
20
-74.600000000000009
42
0.4142135623730977
10
1.5999999999999996
20
-76.200000000000017
10
34.118750000000006
20
-76.200000000000017
42
-0.4142135623730967
10
35.718750000000014
20
-77.800000000000011
10
35.71875
20
-81.599999999999994
42
0.41421356237309509
10
37.318750000000009
20
-83.200000000000003
10
74.599999999999994
20
-83.200000000000003
42
0.41421356237309825
10
76.200000000000003
20
-81.599999999999994
10
76.199999999999989
20
-77.800000000000011
42
-0.41421356237309825
10
77.799999999999997
20
-76.200000000000017
10
132.94062499999998
20
-76.200000000000017
42
-0.41421356237309509
10
134.54062499999998
20
-77.800000000000011
10
134.54062499999998
20
-81.599999999999994
42
0.41421356237309825
10
136.140625
20
-83.200000000000017
10
178.18437499999999
20
-83.199999999999989
42
0.4142135623731048
10
179.78437499999998
20
-81.599999999999994
10
179.78437499999998
20
-77.800000000000011
42
-0.4142135623731048
10
181.38437499999998
20
-76.200000000000017
10
236.52500000000003
20
-76.200000000000045
42
-0.41421356237309509
10
238.125
20
-77.800000000000011
10
238.125
20
-81.599999999999994
42
0.41421356237309825
10
239.72500000000002
20
-83.200000000000003
10
277.00625000000002
20
-83.200000000000003
42
0.41421356237309509
10
278.60624999999999
20
-81.599999999999994
10
278.60625000000005
20
-77.800000000000011
42
-0.41421356237309509
10
280.20625000000001
20
-76.200000000000017
10
312.72500000000002
20
-76.200000000000017
42
0.41421356237308693
10
314.32499999999999
20
-74.600000000000009
10
314.32499999999993
20
-61.800000000000011
42
-0.41421356237310319
10
315.92499999999995
20
-60.200000000000017
10
319.72500000000002
20
-60.200000000000017
42
0.41421356237310319
0
CIRCLE
5
257
100
AcDbEntity
8
0
100
AcDbCircle
10
-3.5000000000000009
20
-38.100000000000009
30
0
40
1.0999999999999999
210
0
220
0
230
1
0
CIRCLE
5
258
100
AcDbEntity
8
0
100
AcDbCircle
10
55.959374999999994
20
3.5
30
0
40
1.1000000000000019
210
0
220
0
230
1
0
CIRCLE
5
259
100
AcDbEntity
8
0
100
AcDbCircle
10
157.16249999999999
20
3.5
30
0
40
1.0999999999999943
210
0
220
0
230
1
0
CIRCLE
5
260
100
AcDbEntity
8
0
100
AcDbCircle
10
55.959374999999994
20
-79.700000000000003
30
0
40
1.1000000000000019
210
0
220
0
230
1
0
CIRCLE
5
261
100
AcDbEntity
8
0
100
AcDbCircle
10
157.16250000000002
20
-79.700000000000003
30
0
40
1.0999999999999943
210
0
220
0
230
1
0
CIRCLE
5
262
100
AcDbEntity
8
0
100
AcDbCircle
10
258.36562500000002
20
3.5
30
0
40
1.1000000000000019
210
0
220
0
230
1
0
CIRCLE
5
263
100
AcDbEntity
8
0
100
AcDbCircle
10
317.82499999999999
20
-38.100000000000009
30
0
40
1.0999999999999999
210
0
220
0
230
1
0
CIRCLE
5
264
100
AcDbEntity
8
0
100
AcDbCircle
10
258.36562500000002
20
-79.700000000000003
30
0
40
1.1000000000000019
210
0
220
0
230
1
0
ENDSEC
0
SECTION
2
OBJECTS
0
DICTIONARY
5
C
100
AcDbDictionary
3
ACAD_GROUP
350
D
3
ACAD_MLINESTYLE
350
17
0
DICTIONARY
5
D
100
AcDbDictionary
0
DICTIONARY
5
1A
330
C
100
AcDbDictionary
0
DICTIONARY
5
17
100
AcDbDictionary
0
ENDSEC
0
EOF
